<svg  version="1.1" xmlns="http://www.w3.org/2000/svg" viewBox="-5 -5 296 80" width="301" height="85">
	<!-- M letter -->
	<path fill="#e73636" stroke="#fff" stroke-width="2.5" d="
		M 0,64
		l 42.5,-64
		v 52
		l 34.7,-52
		v 64
		z" />
	<path fill="#e73636" d="
		M 0,64
		l 42.5,-64
		v 52
		l 34.7,-52
		v 64
		z" />
	<!-- D Blue letter -->
	<path fill="#3e52c4" stroke="#fff" stroke-width="2.5" d="
		M 181.1,0
		h -21.2
		V 64
		h 21.2
		z" />
	<path fill="#3e52c4" d="
		M 181.1,0
		h -21.2
		V 64
		h 21.2
		z" />
	<path fill="#3e52c4" stroke="#fff" stroke-width="2.5" d="
		M 185,64
		V 42.5
		c 15.8,0 15.8,-21 0,-21
		V 0
		c 48,0 48,64 0,64
		z" />
	<path fill="#3e52c4" d="
		M 185,64
		V 42.5
		c 15.8,0 15.8,-21 0,-21
		V 0
		c 48,0 48,64 0,64
		z" />
	<!-- C letter -->
	<path fill="#3e52c4" stroke="#fff" stroke-width="2.5" d="
		M 231.5,30
		c 3.5,-32 39,-37 54.5,-20.5
		l -15,15
		c -5,-4.7 -15,-5 -18,5.5
		z" />
	<path fill="#3e52c4" d="
		M 231.5,30
		c 3.5,-32 39,-37 54.5,-20.5
		l -15,15
		c -5,-4.7 -15,-5 -18,5.5
		z" />
	<path fill="#3e52c4" stroke="#fff" stroke-width="2.5" d="
		M 231.5,34
		c 3.5,32 39,37 54.5,20.5
		l -15,-15
		c -5,4.7 -15,5 -18,-5.5
		z" />
	<path fill="#3e52c4" d="
		M 231.5,34
		c 3.5,32 39,37 54.5,20.5
		l -15,-15
		c -5,4.7 -15,5 -18,-5.5
		z" />
	<!-- D Green letter -->
	<path fill="#45b247" stroke="#fff" stroke-width="2.5" d="
		M 109.2,0
		h -21.2
		V 64
		h 21.2
		z" />
	<path fill="#45b247" d="
		M 109.2,0
		h -21.2
		V 64
		h 21.2
		z" />
	<path fill="#45b247" stroke="#fff" stroke-width="2.5" d="
		M 113.2,64
		V 42.3
		q 9.8,0.5 11.6,-9.2
		h 24.3
		c -1.3,19, -14,30.9 -35,30.9
		z" />
	<path fill="#45b247" d="
		M 113.2,64
		V 42.3
		q 9.8,0.5 11.6,-9.2
		h 24.3
		c -1.3,19, -14,30.9 -35,30.9
		z" />
	<!-- D Green stripes -->
	<path fill="#aaaaaa00" d="
		M 113.2,0
		V 22
		q 9.8,-0.5 11.6,9.2
		h 24.3
		c -1.3,-19, -13.7,-31.2 -36,-31.2
		z" />
	<path fill="#45b247" stroke="#fff" stroke-width="2.5" d="
		M 113.2,21.95
		V 0
		l 5.6,0.25
		l -4.4,21.75
		z" />
	<path fill="#45b247" d="
		M 113.2,21.95
		V 0
		l 5.6,0.25
		l -4.4,21.75
		z" />
	<path fill="#45b247" stroke="#fff" stroke-width="2.5" d="
		M 122.2,0.8
		l 5.45,1.3
		l -10.3,20.22
		l -1.5,-0.25
		z" />
	<path fill="#45b247" d="
		M 122.2,0.8
		l 5.45,1.3
		l -10.3,20.22
		l -1.5,-0.25
		z" />
	<path fill="#45b247" stroke="#fff" stroke-width="2.5" d="
		M 131.1,3.45
		l 4.9,2.7
		l -15.8,17.3
		l -1.4,-0.7
		z" />
	<path fill="#45b247" d="
		M 131.1,3.45
		l 4.9,2.7
		l -15.8,17.3
		l -1.4,-0.7
		z" />
	<path fill="#45b247" stroke="#fff" stroke-width="2.5" d="
		M 143.2,13.25
		l -20.6,12.5
		l -1.15,-1.3
		l 17.8,-15.7
		z" />
	<path fill="#45b247" d="
		M 143.2,13.25
		l -20.6,12.5
		l -1.15,-1.3
		l 17.8,-15.7
		z" />
	<path fill="#45b247" stroke="#fff" stroke-width="2.5" d="
		M 147.45,22
		l -23.3,6.7
		l -0.7,-1.6
		l 21.7,-10.6
		z" />
	<path fill="#45b247" d="
		M 147.45,22
		l -23.3,6.7
		l -0.7,-1.6
		l 21.7,-10.6
		z" />
	<path fill="#45b247" stroke="#fff" stroke-width="2.5" d="
		M 149.02,30.8
		l -24.15,0.4
		l -0.35,-1.5
		l 23.8,-4.5
		z" />
	<path fill="#45b247" d="
		M 149.02,30.8
		l -24.15,0.4
		l -0.35,-1.5
		l 23.8,-4.5
		z" />
</svg>
