<svg xmlns="http://www.w3.org/2000/svg" viewBox="0 0 286 64"><style>.a{fill:#3e52c4;}.b{fill:#45b247;}</style><path d="M0 64l42.5-64v52l34.7-52v64z" fill="#e73636"/><path d="M181.1 0h-21.2V64h21.2z" class="a"/><path d="M185 64V42.5c15.8 0 15.8-21 0-21V0c48 0 48 64 0 64z" class="a"/><path d="M231.5 30c3.5-32 39-37 54.5-20.5l-15 15c-5-4.7-15-5-18 5.5z" class="a"/><path d="M231.5 34c3.5 32 39 37 54.5 20.5l-15-15c-5 4.7-15 5-18-5.5z" class="a"/><path d="M109.2 0h-21.2V64h21.2z" class="b"/><path d="M113.2 64V42.3q9.8 0.5 11.6-9.2h24.3c-1.3 19-14 30.9-35 30.9z" class="b"/><path d="M113.2 21.95V0l5.6 0.25 -4.4 21.75z" class="b"/><path d="M122.2 0.8l5.45 1.3 -10.3 20.22 -1.5-0.25z" class="b"/><path d="M131.1 3.45l4.9 2.7 -15.8 17.3 -1.4-0.7z" class="b"/><path d="M143.2 13.25l-20.6 12.5 -1.15-1.3 17.8-15.7z" class="b"/><path d="M147.45 22l-23.3 6.7 -0.7-1.6 21.7-10.6z" class="b"/><path d="M149.2 31.2l-24.3 0.4 -0.35-1.5 23.8-4.5z" class="b"/></svg>