<?xml version="1.0" encoding="UTF-8" standalone="no"?>
<!DOCTYPE svg PUBLIC "-//W3C//DTD SVG 1.1//EN" "http://www.w3.org/Graphics/SVG/1.1/DTD/svg11.dtd">
<svg version="1.1" xmlns="http://www.w3.org/2000/svg" xmlns:xlink="http://www.w3.org/1999/xlink" preserveAspectRatio="xMidYMid meet" viewBox="0 0 640 640"><defs><path d="M640 320C640 496.61 496.61 640 320 640C143.39 640 0 496.61 0 320C0 143.39 143.39 0 320 0C496.61 0 640 143.39 640 320Z" id="h1G94p63J"></path><path d="M399.74 24.03L400.14 24.07L400.53 24.13L400.92 24.2L401.3 24.29L401.68 24.39L402.05 24.5L402.41 24.63L402.77 24.78L403.12 24.93L403.47 25.1L403.8 25.28L404.13 25.48L404.45 25.69L404.76 25.9L405.06 26.13L405.35 26.38L405.64 26.63L405.91 26.89L406.17 27.16L406.42 27.45L406.67 27.74L406.9 28.04L407.11 28.35L407.32 28.67L407.52 29L407.7 29.33L407.87 29.68L408.02 30.03L408.17 30.39L408.3 30.75L408.41 31.12L408.51 31.5L408.6 31.88L408.67 32.27L408.73 32.66L408.77 33.06L408.79 33.46L408.8 33.87L408.8 231.2L606.13 231.2L606.54 231.21L606.94 231.23L607.34 231.27L607.73 231.33L608.12 231.4L608.5 231.49L608.88 231.59L609.25 231.7L609.61 231.83L609.97 231.98L610.32 232.13L610.67 232.3L611 232.48L611.33 232.68L611.65 232.89L611.96 233.1L612.26 233.33L612.55 233.58L612.84 233.83L613.11 234.09L613.37 234.36L613.62 234.65L613.87 234.94L614.1 235.24L614.31 235.55L614.52 235.87L614.72 236.2L614.9 236.53L615.07 236.88L615.22 237.23L615.37 237.59L615.5 237.95L615.61 238.32L615.71 238.7L615.8 239.08L615.87 239.47L615.93 239.86L615.97 240.26L615.99 240.66L616 241.07L616 398.93L615.99 399.34L615.97 399.74L615.93 400.14L615.87 400.53L615.8 400.92L615.71 401.3L615.61 401.68L615.5 402.05L615.37 402.41L615.22 402.77L615.07 403.12L614.9 403.47L614.72 403.8L614.52 404.13L614.31 404.45L614.1 404.76L613.87 405.06L613.62 405.35L613.37 405.64L613.11 405.91L612.84 406.17L612.55 406.42L612.26 406.67L611.96 406.9L611.65 407.11L611.33 407.32L611 407.52L610.67 407.7L610.32 407.87L609.97 408.02L609.61 408.17L609.25 408.3L608.88 408.41L608.5 408.51L608.12 408.6L607.73 408.67L607.34 408.73L606.94 408.77L606.54 408.79L606.13 408.8L408.8 408.8L408.8 606.13L408.79 606.54L408.77 606.94L408.73 607.34L408.67 607.73L408.6 608.12L408.51 608.5L408.41 608.88L408.3 609.25L408.17 609.61L408.02 609.97L407.87 610.32L407.7 610.67L407.52 611L407.32 611.33L407.11 611.65L406.9 611.96L406.67 612.26L406.42 612.55L406.17 612.84L405.91 613.11L405.64 613.37L405.35 613.62L405.06 613.87L404.76 614.1L404.45 614.31L404.13 614.52L403.8 614.72L403.47 614.9L403.12 615.07L402.77 615.22L402.41 615.37L402.05 615.5L401.68 615.61L401.3 615.71L400.92 615.8L400.53 615.87L400.14 615.93L399.74 615.97L399.34 615.99L398.93 616L241.07 616L240.66 615.99L240.26 615.97L239.86 615.93L239.47 615.87L239.08 615.8L238.7 615.71L238.32 615.61L237.95 615.5L237.59 615.37L237.23 615.22L236.88 615.07L236.53 614.9L236.2 614.72L235.87 614.52L235.55 614.31L235.24 614.1L234.94 613.87L234.65 613.62L234.36 613.37L234.09 613.11L233.83 612.84L233.58 612.55L233.33 612.26L233.1 611.96L232.89 611.65L232.68 611.33L232.48 611L232.3 610.67L232.13 610.32L231.98 609.97L231.83 609.61L231.7 609.25L231.59 608.88L231.49 608.5L231.4 608.12L231.33 607.73L231.27 607.34L231.23 606.94L231.21 606.54L231.2 606.13L231.2 408.8L33.87 408.8L33.46 408.79L33.06 408.77L32.66 408.73L32.27 408.67L31.88 408.6L31.5 408.51L31.12 408.41L30.75 408.3L30.39 408.17L30.03 408.02L29.68 407.87L29.33 407.7L29 407.52L28.67 407.32L28.35 407.11L28.04 406.9L27.74 406.67L27.45 406.42L27.16 406.17L26.89 405.91L26.63 405.64L26.38 405.35L26.13 405.06L25.9 404.76L25.69 404.45L25.48 404.13L25.28 403.8L25.1 403.47L24.93 403.12L24.78 402.77L24.63 402.41L24.5 402.05L24.39 401.68L24.29 401.3L24.2 400.92L24.13 400.53L24.07 400.14L24.03 399.74L24.01 399.34L24 398.93L24 241.07L24.01 240.66L24.03 240.26L24.07 239.86L24.13 239.47L24.2 239.08L24.29 238.7L24.39 238.32L24.5 237.95L24.63 237.59L24.78 237.23L24.93 236.88L25.1 236.53L25.28 236.2L25.48 235.87L25.69 235.55L25.9 235.24L26.13 234.94L26.38 234.65L26.63 234.36L26.89 234.09L27.16 233.83L27.45 233.58L27.74 233.33L28.04 233.1L28.35 232.89L28.67 232.68L29 232.48L29.33 232.3L29.68 232.13L30.03 231.98L30.39 231.83L30.75 231.7L31.12 231.59L31.5 231.49L31.88 231.4L32.27 231.33L32.66 231.27L33.06 231.23L33.46 231.21L33.87 231.2L231.2 231.2L231.2 33.87L231.21 33.46L231.23 33.06L231.27 32.66L231.33 32.27L231.4 31.88L231.49 31.5L231.59 31.12L231.7 30.75L231.83 30.39L231.98 30.03L232.13 29.68L232.3 29.33L232.48 29L232.68 28.67L232.89 28.35L233.1 28.04L233.33 27.74L233.58 27.45L233.83 27.16L234.09 26.89L234.36 26.63L234.65 26.38L234.94 26.13L235.24 25.9L235.55 25.69L235.87 25.48L236.2 25.28L236.53 25.1L236.88 24.93L237.23 24.78L237.59 24.63L237.95 24.5L238.32 24.39L238.7 24.29L239.08 24.2L239.47 24.13L239.86 24.07L240.26 24.03L240.66 24.01L241.07 24L398.93 24L399.34 24.01L399.74 24.03Z" id="lzrafL9wG"></path><path d="M153.04 117.68L206.07 135.36L170.71 170.72L135.36 206.07L117.68 153.04L100 100L153.04 117.68Z" id="dfdcYvg"></path><path d="M524.39 153.04L506.71 206.07L471.35 170.71L436 135.36L489.03 117.68L542.06 100L524.39 153.04Z" id="a1ziFQcTHf"></path><path d="M489.03 522.89L436 505.21L471.35 469.85L506.71 434.5L524.39 487.53L542.06 540.56L489.03 522.89Z" id="gmEeRuuwQ"></path><path d="M117.68 490.53L135.36 437.5L170.71 472.85L206.07 508.21L153.04 525.89L100 543.57L117.68 490.53Z" id="c2AzBysGMe"></path><path d="M380 320C380 353.11 353.11 380 320 380C286.89 380 260 353.11 260 320C260 286.88 286.89 260 320 260C353.11 260 380 286.88 380 320Z" id="e3hbd2MXhD"></path></defs><g><g><g><use xlink:href="#h1G94p63J" opacity="0.7" fill="#000000" fill-opacity="1"></use></g><g><use xlink:href="#lzrafL9wG" opacity="0.5" fill="#000000" fill-opacity="1"></use></g><g><use xlink:href="#dfdcYvg" opacity="0.5" fill="#000000" fill-opacity="1"></use></g><g><use xlink:href="#a1ziFQcTHf" opacity="0.5" fill="#000000" fill-opacity="1"></use></g><g><use xlink:href="#gmEeRuuwQ" opacity="0.5" fill="#000000" fill-opacity="1"></use></g><g><use xlink:href="#c2AzBysGMe" opacity="0.5" fill="#000000" fill-opacity="1"></use></g><g><use xlink:href="#e3hbd2MXhD" opacity="0.2" fill="#ffffff" fill-opacity="1"></use></g></g></g></svg>