<svg version="1.1" viewBox="0 0 100 100" xmlns="http://www.w3.org/2000/svg">
	<style>
		.a { font: 13px sans-serif; fill: #fff; stroke-width: 0.7; stroke-linejoin: miter; }
		.s { stroke-width: 1.5; }
	</style>
	<g transform="translate(-8, 0)" stroke="#fff" fill="none" stroke-width="2" stroke-linecap="square" stroke-linejoin="round">
		<rect x="10" y="10" width="20" height="20"></rect>
		<rect x="10" y="70" width="20" height="20"></rect>
		<rect x="35" y="40" width="20" height="20"></rect>
		<rect x="72" y="40" width="20" height="20"></rect>

		<text x="16.5" y="24.5" class="a">1</text>
		<text x="16.5" y="84.5" class="a">2</text>
		<text x="41.5" y="54.5" class="a">3</text>
		<text x="78.5" y="54.5" class="a">4</text>

		<path class="s" d="
			M20 36
			H40
			V20
			H33

			M35 17
			L32 20
			L35 23
		" />

		<path class="s" d="
			M20 30
			V70

			M20 50
			H32

			M28 45
			L33 50
			L28 55
		" />

		<path class="s" d="
			M55 50
			H69

			M65 45
			L70 50
			L65 55
		" />

		<path class="s" d="
			M92 50
			H105

			M103 47
			L106 50
			L103 53
		" />
	</g>
</svg>
