FishBowl_Header:
	sHeaderInit	; Z80 offset is $A685
	sHeaderTempo	$81, $30
	sHeaderCh	$05, $03
	sHeaderDAC	FishBowl_FM5, $00, dKick
	sHeaderDAC	FishBowl_DAC2
	sHeaderFM	FishBowl_FM1, $0C, $08
	sHeaderFM	FishBowl_FM6, $00, $12
	sHeaderFM	FishBowl_FM2, $00, $06
	sHeaderFM	FishBowl_FM3, $00, $0A
	sHeaderFM	FishBowl_FM4, $00, $0E
;	sHeaderFM	FishBowl_FM5, $00, $00
	sHeaderPSG	FishBowl_PSG1, $F4-$0C, $02, $00, VolEnv_00
	sHeaderPSG	FishBowl_PSG2, $F4-$0C, $03, $00, VolEnv_00
	sHeaderPSG	FishBowl_PSG3, $F4-$0C, $04, $00, VolEnv_00

	; Patch $00
	; $27
	; $20, $23, $60, $01,	$1E, $1F, $1F, $1F
	; $0A, $0A, $0B, $0A,	$05, $07, $0A, $08
	; $AF, $8F, $9F, $7F,	$A1, $A5, $A8, $80
	spAlgorithm	$07
	spFeedback	$04
	spDetune	$02, $06, $02, $00
	spMultiple	$00, $00, $03, $01
	spRateScale	$00, $00, $00, $00
	spAttackRt	$1E, $1F, $1F, $1F
	spAmpMod	$00, $00, $00, $00
	spDecayRt	$0A, $0B, $0A, $0A
	spSustainRt	$05, $0A, $07, $08
	spSustainLv	$0A, $09, $08, $07
	spReleaseRt	$0F, $0F, $0F, $0F
	spTotalLv	$21, $28, $25, $00

	; Patch $01
	; $3C
	; $5C, $01, $02, $01,	$1F, $09, $1F, $09
	; $13, $0E, $11, $13,	$0F, $09, $08, $0C
	; $5F, $1F, $6F, $0F,	$45, $80, $39, $80
	spAlgorithm	$04
	spFeedback	$07
	spDetune	$05, $00, $00, $00
	spMultiple	$0C, $02, $01, $01
	spRateScale	$00, $00, $00, $00
	spAttackRt	$1F, $1F, $09, $09
	spAmpMod	$00, $00, $00, $00
	spDecayRt	$13, $11, $0E, $13
	spSustainRt	$0F, $08, $09, $0C
	spSustainLv	$05, $06, $01, $00
	spReleaseRt	$0F, $0F, $0F, $0F
	spTotalLv	$45, $39, $00, $00

	; Patch $02
	; $39
	; $03, $0A, $01, $01,	$5F, $15, $11, $3A
	; $0C, $0F, $0D, $15,	$05, $0E, $02, $08
	; $3F, $2F, $2F, $0F,	$18, $1F, $2A, $80
	spAlgorithm	$01
	spFeedback	$07
	spDetune	$00, $00, $00, $00
	spMultiple	$03, $01, $0A, $01
	spRateScale	$01, $00, $00, $00
	spAttackRt	$1F, $11, $15, $1A
	spAmpMod	$00, $00, $00, $00
	spDecayRt	$0C, $0D, $0F, $15
	spSustainRt	$05, $02, $0E, $08
	spSustainLv	$03, $02, $02, $00
	spReleaseRt	$0F, $0F, $0F, $0F
	spTotalLv	$18, $2A, $1F, $00

	; Patch $03
	; $3F
	; $00, $01, $01, $01,	$1C, $1A, $1C, $19
	; $10, $10, $0F, $0F,	$0A, $0A, $0A, $0A
	; $FF, $FF, $FF, $FF,	$9E, $94, $9C, $80
	spAlgorithm	$07
	spFeedback	$07
	spDetune	$00, $00, $00, $00
	spMultiple	$00, $01, $01, $01
	spRateScale	$00, $00, $00, $00
	spAttackRt	$1C, $1C, $1A, $19
	spAmpMod	$00, $00, $00, $00
	spDecayRt	$10, $0F, $10, $0F
	spSustainRt	$0A, $0A, $0A, $0A
	spSustainLv	$0F, $0F, $0F, $0F
	spReleaseRt	$0F, $0F, $0F, $0F
	spTotalLv	$1E, $1C, $14, $00

	; Patch $04
	; $3B
	; $3C, $14, $04, $04,	$5E, $18, $18, $50
	; $0D, $00, $03, $00,	$19, $00, $02, $00
	; $55, $05, $35, $07,	$1C, $2E, $18, $80
	spAlgorithm	$03
	spFeedback	$07
	spDetune	$03, $00, $01, $00
	spMultiple	$0C, $04, $04, $04
	spRateScale	$01, $00, $00, $01
	spAttackRt	$1E, $18, $18, $10
	spAmpMod	$00, $00, $00, $00
	spDecayRt	$0D, $03, $00, $00
	spSustainRt	$19, $02, $00, $00
	spSustainLv	$05, $03, $00, $00
	spReleaseRt	$05, $05, $05, $07
	spTotalLv	$1C, $18, $2E, $00

	; Patch $05
	; $3A
	; $51, $01, $11, $01,	$0F, $10, $0F, $0E
	; $08, $0A, $00, $06,	$01, $01, $01, $01
	; $1F, $1F, $1F, $1F,	$28, $29, $2D, $80
	spAlgorithm	$02
	spFeedback	$07
	spDetune	$05, $01, $00, $00
	spMultiple	$01, $01, $01, $01
	spRateScale	$00, $00, $00, $00
	spAttackRt	$0F, $0F, $10, $0E
	spAmpMod	$00, $00, $00, $00
	spDecayRt	$08, $00, $0A, $06
	spSustainRt	$01, $01, $01, $01
	spSustainLv	$01, $01, $01, $01
	spReleaseRt	$0F, $0F, $0F, $0F
	spTotalLv	$28, $2D, $29, $00

	; Patch $06
	; $04
	; $30, $74, $70, $34,	$00, $11, $1F, $11
	; $00, $06, $00, $06,	$00, $03, $00, $03
	; $05, $18, $05, $19,	$25, $80, $25, $80
	spAlgorithm	$04
	spFeedback	$00
	spDetune	$03, $07, $07, $03
	spMultiple	$00, $00, $04, $04
	spRateScale	$00, $00, $00, $00
	spAttackRt	$00, $1F, $11, $11
	spAmpMod	$00, $00, $00, $00
	spDecayRt	$00, $00, $06, $06
	spSustainRt	$00, $00, $03, $03
	spSustainLv	$00, $00, $01, $01
	spReleaseRt	$05, $05, $08, $09
	spTotalLv	$25, $25, $00, $00

	; Patch $07
	; $35
	; $14, $1A, $04, $09,	$0E, $10, $11, $0E
	; $0C, $15, $03, $06,	$16, $0E, $09, $10
	; $2F, $2F, $4F, $4F,	$2F, $12, $12, $80
	spAlgorithm	$05
	spFeedback	$06
	spDetune	$01, $00, $01, $00
	spMultiple	$04, $04, $0A, $09
	spRateScale	$00, $00, $00, $00
	spAttackRt	$0E, $11, $10, $0E
	spAmpMod	$00, $00, $00, $00
	spDecayRt	$0C, $03, $15, $06
	spSustainRt	$16, $09, $0E, $10
	spSustainLv	$02, $04, $02, $04
	spReleaseRt	$0F, $0F, $0F, $0F
	spTotalLv	$2F, $12, $12, $00

FishBowl_FM1:
	sPan		spCentre, $00
	ssVol		$12

FishBowl_Loop25:
FishBowl_Jump8:
	ssMod68K	$01, $01, $00, $00
	sPatFM		$05
	dc.b nRst, $04, nBb4, $04, sHold, $04, sHold, $0C
	dc.b sHold, $18, nF3, $10, nFs3, nF3, nE3, $60
	dc.b sHold, $30, nD3, nCs3, $60
	sLoop		$00, $02, FishBowl_Loop25
	dc.b sHold, $60, nEb3, nF3, nFs3

FishBowl_Loop26:
	dc.b nRst, $30, nF3, $10, nFs3, nF3, nE3, $60
	sLoop		$00, $02, FishBowl_Loop26
	saVolFM		$02

FishBowl_Loop30:
	sPatFM		$06
	sPan		spLeft, $00
	dc.b nRst, $18
	sCall		FishBowl_Call11

FishBowl_Loop27:
	dc.b nB0, $30, $06
	saVol		$02
	sLoop		$00, $10, FishBowl_Loop27
	sPitchSlide	$00
	dc.b nRst, $60, $18
	saVol		$E0

	sPan		spRight, $00
	sCall		FishBowl_Call11
FishBowl_Loop28:
	dc.b nB0, $30, $06
	saVol		$02
	sLoop		$00, $10, FishBowl_Loop28
	sPitchSlide	$00
	dc.b nRst, $60, $18
	saVol		$E0

	sPan		spLeft, $00
	sCall		FishBowl_Call11

FishBowl_Loop29:
	dc.b nB0, $30, $06
	saVol		$02
	sLoop		$00, $10, FishBowl_Loop29
	sPitchSlide	$00
	dc.b nRst, $30, $18
	saVol		$E0
	sLoop		$01, $02, FishBowl_Loop30

	saVol		$FE
	sPan		spCenter, $00
	sPatFM		$05
	saTranspose	$00
	dc.b nRst, $18, nC3, $0C, $0C, $30, sHold, $60
	dc.b sHold, $60, sHold, $60, nRst, $18, nAb2, $0C
	dc.b $0C, $30, sHold, $60, sHold, $60, sHold, $60
	sJump		FishBowl_Jump8

FishBowl_Call11:
	sPitchSlide	$01
	dc.b nE1, nEb5, $08, sHold, nE0, $24, $08, nF0
	dc.b $24, $08, nG0, $24, $06, nG1, nEb5, $06
	dc.b sHold, nG0, $24, $06, nA0, $24, $06
	sRet

FishBowl_FM2:
	sPan		spCentre, $00
	ssVol		$12
	saVolFM		$02
	sPatFM		$00

FishBowl_Loop16:
FishBowl_Jump7:
	sCall		FishBowl_Call10
	sLoop		$01, $04, FishBowl_Loop16

FishBowl_Loop17:
	dc.b nB2, $18, nFs3, nCs4, nFs3, nCs4, $30, nFs3
	sLoop		$01, $02, FishBowl_Loop17

FishBowl_Loop18:
	sCall		FishBowl_Call10
	sLoop		$01, $02, FishBowl_Loop18

FishBowl_Loop19:
	dc.b nB2, $18, nFs3, nEb4, nFs3, nEb4, $30, nFs3
	sLoop		$01, $02, FishBowl_Loop19

FishBowl_Loop20:
	sCall		FishBowl_Call10
	sLoop		$01, $02, FishBowl_Loop20

FishBowl_Loop21:
	dc.b nB2, $18, nFs3, nEb4, nFs3, nEb4, $30, nB2
	sLoop		$01, $02, FishBowl_Loop21

FishBowl_Loop22:
	sCall		FishBowl_Call10
	sLoop		$01, $02, FishBowl_Loop22

FishBowl_Loop23:
	dc.b nAb2, $18, nEb3, nC4, nEb3, nC4, $30, nEb3
	sLoop		$01, $02, FishBowl_Loop23

FishBowl_Loop24:
	dc.b nCs3, $18, nAb3, nEb4, nAb3, nCs4, $30, nAb3
	sLoop		$01, $02, FishBowl_Loop24
	sJump		FishBowl_Jump7

FishBowl_Call10:
	dc.b nFs2, $18, nCs3, nBb3, nCs3, nBb3, $30, nCs3
	sRet

FishBowl_FM3:
	sPan		spCentre, $00
	ssVol		$13
	saVolFM		$FE
	sPatFM		$04
	ssMod68K	$08, $01, $01, $10

FishBowl_Jump4:
	dc.b nF3, $10, nFs3, nF3, nE3, $48, nCs3, $18
	dc.b nCs3, nEb3, $18, nE3, $30, nCs4, nBb3, nFs3
	dc.b nF3, $10, nFs3, nF3, nE3, $48, nCs3, $18
	dc.b nCs3, nEb3, $18, nE3, $60, sHold, $60, nF3
	dc.b $18, nFs3, nCs3, nEb3, nF3, nFs3, nAb3, nBb3
	dc.b nCs4, $48, nB3, $0C, nBb3, nAb3, $30, nFs3
	dc.b nF3, $10, nFs3, nF3, nE3, $60, nC4, $10
	dc.b nCs4, nC4, nBb3, $60, sHold, $60
	sCall		FishBowl_Call6
	dc.b nBb3, $18, sHold, $0C, nAb3, $18, sHold, $0C
	dc.b nFs3, $18, nEb3, $60, nRst, $30, nF3, nFs3
	dc.b nAb3, nBb3, $18, nA3, nBb3, nF3, nEb3, $60
	dc.b nEb3, $30, sHold, $30, nCs3, $60
	sJump		FishBowl_Jump4

FishBowl_Call6:
	dc.b nAb3, $30, nBb3, nEb4, $30, sHold, $18, nBb3
	dc.b nAb3, $18, nBb3, nEb3, $30, nFs3, nAb3, nC3
	dc.b $60, nCs3, $60, sHold, $60, sHold, $60, nAb3
	dc.b $30, nBb3, nEb4, $30, sHold, $18, nBb3, nAb3
	dc.b $18, nBb3, nEb3, $30, nFs3, nAb3, nF3, $60
	dc.b sHold, $60, sHold, $60, nRst
	sRet

FishBowl_FM4:
	sPan		spCentre, $00
	ssVol		$14
	sPatFM		$05

FishBowl_Jump6:
	dc.b nBb4, $60, sHold, $60, sHold, $60, sHold, $60
	dc.b nBb4, $60, sHold, $60, sHold, $60, sHold, $60
	dc.b nF4, $60, nFs4, nAb4, nBb4, nBb4, $60, sHold
	dc.b $60, sHold, $60, sHold, $60
	sPatFM		$02
	dc.b nRst, $60, nRst, $02
	sCall		FishBowl_Call4
	sCall		FishBowl_Call2
	dc.b nAb4, $05, nFs4, nAb4, nBb4, nCs5, $04, nBb4
	dc.b $05, nAb4, nBb4, nCs5, nEb5, $04
	sCall		FishBowl_Call5
	sCall		FishBowl_Call2
	sCall		FishBowl_Call4
	sCall		FishBowl_Call2
	dc.b nAb4, $05, nFs4, nAb4, nBb4, nCs5, $04, nBb4
	dc.b $05, nAb4, nBb4, nCs5, nEb5, $04
	sCall		FishBowl_Call5
	dc.b nAb3, $05, nFs3, nAb3, nBb3, nCs4, $02
	sPatFM		$05
	dc.b nRst, $18, nEb4, $0C, $0C, $30, sHold, $60
	dc.b sHold, $60, sHold, $60, nRst, $18, nCs4, $0C
	dc.b $0C, $30, sHold, $60, sHold, $60, sHold, $60
	sJump		FishBowl_Jump6

FishBowl_FM5:
FishBowl_Jump5:
;	sPatFM		$03
	sCall		FishBowl_Call7
;	ssVol		$13
	dc.b nF4, $0C, nF4
	sCall		FishBowl_Call8
	sCall		FishBowl_Call9
	sCall		FishBowl_Call7
	sCall		FishBowl_Call8
	sCall		FishBowl_Call9
	sCall		FishBowl_Call8
	sJump		FishBowl_Jump5

FishBowl_Call7:
;	ssVol		$10
;	dc.b nC3, $02
;	ssVol		$11
;	dc.b nC3, $02, sHold, $02, sHold, $06, sHold, $0C
	dc.b nC4, $18
	sRet

FishBowl_Call9:
;	ssVol		$10
;	dc.b nF3, $02
;	ssVol		$11
;	dc.b nF3, $02, sHold, $02, sHold, $06, sHold, $0C
	dc.b nF4, $18
	sRet

FishBowl_Call8:
;	ssVol		$10
;	dc.b nB3, $02
;	ssVol		$11
;	dc.b nB3, $02, sHold, $02, sHold, $06, sHold, $0C
	dc.b nB4, $18
	sRet

FishBowl_FM6:
	sPan		spCentre, $00
	ssVol		$14
	saVolFM		$FF
	sPatFM		$04
	ssMod68K	$14, $01, $01, $14
	dc.b nRst, $0C, nRst, $06
	sJump		FishBowl_Jump4

FishBowl_PSG1:
	ssVol		$08
	saVolFM		$FF
	sVolEnvPSG	VolEnv_0E

FishBowl_Jump3:
	sVolEnvPSG	VolEnv_0C
	saTranspose	$F4

FishBowl_Loop11:
	dc.b nBb5, $0C, nFs5
	sLoop		$01, $20, FishBowl_Loop11

FishBowl_Loop12:
	dc.b nAb5, $0C, nFs5
	sLoop		$01, $10, FishBowl_Loop12

FishBowl_Loop13:
	dc.b nBb5, $0C, nFs5
	sLoop		$01, $10, FishBowl_Loop13
	ssVol		$07
	sVolEnvPSG	VolEnv_0D
	saTranspose	$0C
	sCall		FishBowl_Call4
	sCall		FishBowl_Call2
	dc.b nAb4, $05, nFs4, nAb4, nBb4, nCs5, $04, nBb4
	dc.b $05, nAb4, nBb4, nCs5, nEb5, $04
	sCall		FishBowl_Call5
	sCall		FishBowl_Call2
	sCall		FishBowl_Call4
	sCall		FishBowl_Call2
	dc.b nAb4, $05, nFs4, nAb4, nBb4, nCs5, $04, nBb4
	dc.b $05, nAb4, nBb4, nCs5, nEb5, $04
	sCall		FishBowl_Call5
	sCall		FishBowl_Call2
	saTranspose	$F4
	sVolEnvPSG	VolEnv_0C

FishBowl_Loop14:
	dc.b nFs5, $0C, nEb5
	sLoop		$01, $10, FishBowl_Loop14

FishBowl_Loop15:
	dc.b nF5, $0C, nCs5
	sLoop		$01, $10, FishBowl_Loop15
	saTranspose	$0C
	sJump		FishBowl_Jump3

FishBowl_Call4:
	dc.b nEb6, $06, nCs6, nBb5, nAb5, nCs6, nBb5, nAb5
	dc.b nFs5, nBb5, nAb5, nFs5, nEb5, nAb5, nFs5, nEb5
	dc.b nCs5, nFs5, nEb5, nCs5, nBb4, nEb5, nCs5, nBb4
	dc.b nAb4, nCs5, nBb4, nAb4, nFs4, nBb4, nAb4, nFs4
	dc.b nEb4, nBb4, nAb4, nFs4, nEb4, nAb4, nFs4, nEb4
	dc.b nCs4, nFs4, nEb4, nCs4, nBb3
	sRet

FishBowl_Call2:
	dc.b nAb3, $05, nFs3, nAb3, nBb3, nCs4, $04, nBb3
	dc.b $05, nAb3, nBb3, nCs4, nEb4, $04, nCs4, $05
	dc.b nBb3, nCs4, nEb4, nFs4, $04, nEb4, $05, nCs4
	dc.b nEb4, nFs4, nAb4, $04, nFs4, $05, nEb4, nFs4
	dc.b nAb4, nBb4, $04
	sRet

FishBowl_Call5:
	dc.b nFs5, $06, nEb5, nCs5, nBb4, nEb5, nCs5, nBb4
	dc.b nAb4, nCs5, nBb4, nAb4, nFs4, nBb4, nAb4, nFs4
	dc.b nEb4, nCs5, nEb5, nCs5, nBb4, nCs5, nEb5, nFs5
	dc.b nEb5, nBb4, nAb4, nFs4, nEb4, nAb4, nFs4, nEb4
	dc.b nCs4, nFs4, nEb4, nCs4, nBb3
	sRet

FishBowl_PSG2:
	ssVol		$09
	sVolEnvPSG	VolEnv_0E
	dc.b nRst, $03, nRst, $06
	saDetune	$FF

FishBowl_Jump2:
	sVolEnvPSG	VolEnv_0C
	saTranspose	$F4

FishBowl_Loop6:
	dc.b nBb5, $0C, nFs5
	sLoop		$01, $20, FishBowl_Loop6

FishBowl_Loop7:
	dc.b nAb5, $0C, nFs5
	sLoop		$01, $10, FishBowl_Loop7

FishBowl_Loop8:
	dc.b nBb5, $0C, nFs5
	sLoop		$01, $10, FishBowl_Loop8
	ssVol		$08
	sVolEnvPSG	VolEnv_0D
	saTranspose	$0C
	sCall		FishBowl_Call1
	sCall		FishBowl_Call2
	dc.b nAb4, $05, nFs4, nAb4, nBb4, nCs5, $04, nBb4
	dc.b $05, nAb4, nBb4, nCs5, nEb5, $04
	sCall		FishBowl_Call3
	sCall		FishBowl_Call2
	sCall		FishBowl_Call1
	sCall		FishBowl_Call2
	dc.b nAb4, $05, nFs4, nAb4, nBb4, nCs5, $04, nBb4
	dc.b $05, nAb4, nBb4, nCs5, nEb5, $04
	sCall		FishBowl_Call3
	sCall		FishBowl_Call2
	saTranspose	$F4
	sVolEnvPSG	VolEnv_0C

FishBowl_Loop9:
	dc.b nFs5, $0C, nEb5
	sLoop		$01, $10, FishBowl_Loop9

FishBowl_Loop10:
	dc.b nF5, $0C, nCs5
	sLoop		$01, $10, FishBowl_Loop10
	saTranspose	$0C
	sJump		FishBowl_Jump2

FishBowl_Call1:
	dc.b nEb6, $06, nCs6, nBb5, nAb5, nCs6, nBb5, nAb5
	dc.b nFs5, nBb5, nAb5, nFs5, nEb5, nAb5, nFs5, nEb5
	dc.b nCs5, nFs5, nEb5, nCs5, nBb4, $02, nRst, $04
	dc.b nEb5, nRst, $02, nCs5, $06, nBb4, nAb4, nCs5
	dc.b nBb4, nAb4, nFs4, nBb4, nAb4, nFs4, nEb4, nBb4
	dc.b nAb4, nFs4, nEb4, nAb4, nFs4, nEb4, nCs4, nFs4
	dc.b nEb4, nCs4, nBb3
	sRet

FishBowl_Call3:
	dc.b nFs5, $06, nEb5, nCs5, nBb4, nEb5, nCs5, nBb4
	dc.b nAb4, nCs5, nBb4, nAb4, nFs4, nBb4, nAb4, nFs4
	dc.b $04, nRst, $02, nEb4, $06, nCs5, nEb5, nCs5
	dc.b nBb4, nCs5, nEb5, nFs5, nEb5, nBb4, nAb4, nFs4
	dc.b nEb4, nAb4, nFs4, nEb4, nCs4, nFs4, nEb4, nCs4
	dc.b nBb3
	sRet

FishBowl_PSG3:
	ssVol		$08
	saVolFM		$01
	sVolEnvPSG	VolEnv_0E
	dc.b nRst, $06, nRst, $0C
	saDetune	$01

FishBowl_Jump1:
	sVolEnvPSG	VolEnv_0C
	saTranspose	$F4

FishBowl_Loop1:
	sVolEnvPSG	VolEnv_0E
	dc.b nBb5, $0C, nFs5
	sLoop		$01, $20, FishBowl_Loop1

FishBowl_Loop2:
	dc.b nAb5, $0C, nFs5
	sLoop		$01, $10, FishBowl_Loop2

FishBowl_Loop3:
	dc.b nBb5, $0C, nFs5
	sLoop		$01, $10, FishBowl_Loop3
	ssVol		$07
	sVolEnvPSG	VolEnv_0D
	saTranspose	$0C
	sCall		FishBowl_Call1
	sCall		FishBowl_Call2
	dc.b nAb4, $05, nFs4, nAb4, nBb4, nCs5, $04, nBb4
	dc.b $05, nAb4, nBb4, nCs5, nEb5, $04
	sCall		FishBowl_Call3
	sCall		FishBowl_Call2
	sCall		FishBowl_Call1
	sCall		FishBowl_Call2
	dc.b nAb4, $05, nFs4, nAb4, nBb4, nCs5, $04, nBb4
	dc.b $05, nAb4, nBb4, nCs5, nEb5, $04
	sCall		FishBowl_Call3
	sCall		FishBowl_Call2
	saTranspose	$F4
	sVolEnvPSG	VolEnv_0C

FishBowl_Loop4:
	dc.b nFs5, $0C, nEb5
	sLoop		$01, $10, FishBowl_Loop4

FishBowl_Loop5:
	dc.b nF5, $0C, nCs5
	sLoop		$01, $10, FishBowl_Loop5
	saTranspose	$0C
	sJump		FishBowl_Jump1

FishBowl_DAC1:
FishBowl_DAC2:
	sStop
